<svg xmlns="http://www.w3.org/2000/svg" version="1.1" xmlns:xlink="http://www.w3.org/1999/xlink" xmlns:svgjs="http://svgjs.dev/svgjs" width="2000" height="1619" viewBox="0 0 2000 1619"><g transform="matrix(1,0,0,1,0.40015528514072685,3.543895158925693)"><svg viewBox="0 0 305 247" data-background-color="#ffffff" preserveAspectRatio="xMidYMid meet" height="1619" width="2000" xmlns="http://www.w3.org/2000/svg" xmlns:xlink="http://www.w3.org/1999/xlink"><g id="tight-bounds" transform="matrix(1,0,0,1,-0.06102368098396482,-0.09999999999999432)"><svg viewBox="0 0 305.12204736196793 247.2" height="247.2" width="305.12204736196793"><g><svg viewBox="0 0 397.4975999999999 322.0396807426765" height="247.2" width="305.12204736196793"><g><rect width="397.4975999999999" height="5.833174400481473" x="0" y="181.0093271890983" fill="#d7dbde" opacity="1" stroke-width="0" stroke="transparent" fill-opacity="1" class="rect-yte-0" data-fill-palette-color="secondary" rx="1%" id="yte-0" data-palette-color="#d7dbde"></rect></g><g transform="matrix(1,0,0,1,0.9887999999999693,202.1125916431962)"><svg viewBox="0 0 395.52 119.92708909948034" height="119.92708909948034" width="395.52"><g id="textblocktransform"><svg viewBox="0 0 395.52 119.92708909948034" height="119.92708909948034" width="395.52" id="textblock"><g><svg viewBox="0 0 395.52 64.68294131388376" height="64.68294131388376" width="395.52"><g transform="matrix(1,0,0,1,0,0)"><svg width="395.52" viewBox="1.710588348457 -35.18 217.029411651543 35.5" height="64.68294131388376" data-palette-color="#d7dbde"><path d="M10.62 0.32L10.62 0.32Q6.03 0.32 3.98-1.14 1.93-2.59 1.81-5.93L1.81-5.93Q1.68-7.79 1.72-9.3 1.76-10.82 1.88-12.7L1.88-12.7 5.18-12.7Q5.03-10.82 5.04-8.96 5.05-7.1 5.18-5.37L5.18-5.37Q5.3-3.96 6.52-3.28 7.74-2.61 10.55-2.61L10.55-2.61Q13.31-2.61 14.47-3.28 15.63-3.96 15.77-5.37L15.77-5.37Q15.89-7.1 15.88-8.39 15.87-9.67 15.77-11.57L15.77-11.57Q15.67-13.09 14.98-14.11 14.28-15.14 11.89-15.45L11.89-15.45 8.4-16.09Q5.64-16.55 4.26-17.44 2.88-18.33 2.38-19.74 1.88-21.14 1.78-23.17L1.78-23.17Q1.71-24.51 1.73-26.04 1.76-27.56 1.83-29L1.83-29Q1.88-32.32 3.87-33.75 5.86-35.18 10.55-35.18L10.55-35.18Q14.87-35.18 16.83-33.74 18.8-32.3 18.92-28.98L18.92-28.98Q18.99-27.83 18.97-26.14 18.95-24.44 18.87-22.63L18.87-22.63 15.55-22.63Q15.72-24.37 15.72-26.1 15.72-27.83 15.6-29.54L15.6-29.54Q15.5-30.93 14.32-31.59 13.13-32.25 10.47-32.25L10.47-32.25Q7.71-32.25 6.53-31.59 5.35-30.93 5.22-29.54L5.22-29.54Q5.1-27.98 5.11-26.37 5.13-24.76 5.22-23.17L5.22-23.17Q5.32-21.39 5.99-20.45 6.67-19.51 9.18-19.21L9.18-19.21 12.6-18.68Q15.36-18.26 16.75-17.33 18.14-16.41 18.64-14.98 19.14-13.55 19.21-11.57L19.21-11.57Q19.34-9.77 19.31-8.64 19.29-7.52 19.17-5.93L19.17-5.93Q18.99-2.59 17-1.14 15.01 0.32 10.62 0.32ZM30.54 0.29L30.54 0.29Q26.51 0.29 24.79-0.98 23.07-2.25 22.95-5.13L22.95-5.13Q22.85-6.93 22.81-9.38 22.78-11.82 22.81-14.28 22.85-16.75 22.95-18.58L22.95-18.58Q23.07-21.53 24.84-22.8 26.61-24.07 30.54-24.07L30.54-24.07Q34.25-24.07 35.91-22.83 37.57-21.58 37.74-18.73L37.74-18.73Q37.79-17.87 37.84-15.75 37.89-13.62 37.69-11.23L37.69-11.23 26-11.23Q26-9.69 26.02-8.11 26.05-6.52 26.12-4.81L26.12-4.81Q26.14-3.47 27.15-2.95 28.15-2.44 30.44-2.44L30.44-2.44Q32.71-2.44 33.64-2.95 34.57-3.47 34.67-4.81L34.67-4.81Q34.74-6.15 34.67-8.47L34.67-8.47 37.69-8.47Q37.81-7.76 37.8-6.82 37.79-5.88 37.74-5.13L37.74-5.13Q37.57-2.25 36-0.98 34.42 0.29 30.54 0.29ZM26-13.82L26-13.82 34.71-13.82Q34.76-15.48 34.76-16.99 34.76-18.51 34.67-19.07L34.67-19.07Q34.57-20.29 33.62-20.81 32.66-21.34 30.54-21.34L30.54-21.34Q28.17-21.34 27.16-20.81 26.14-20.29 26.12-19.07L26.12-19.07Q26.05-17.65 26.01-16.36 25.97-15.06 26-13.82ZM44.99-19.19L44.99 0 41.84 0 41.84-23.75 44.99-23.75 44.99-21.53 45.75-21.53Q46.5-22.75 47.74-23.41 48.97-24.07 50.85-24.07L50.85-24.07Q53.61-24.07 54.95-22.86 56.29-21.66 56.29-18.82L56.29-18.82 56.29 0 53.17 0 53.17-19.09Q53.17-20.31 52.4-20.86 51.63-21.41 49.92-21.41L49.92-21.41Q48.21-21.41 46.92-20.83 45.62-20.24 44.99-19.19L44.99-19.19ZM68.23 0.29L68.23 0.29Q64.42 0.29 63.09-0.98 61.76-2.25 61.76-5.13L61.76-5.13 61.76-21.02 59.42-21.02 59.42-23.75 61.83-23.75 61.83-30.49 64.93-30.49 64.93-23.75 70.31-23.75 70.31-21.02 64.91-21.02 64.91-4.79Q64.91-3.44 65.47-2.93 66.03-2.42 68.3-2.42L68.3-2.42Q69.23-2.42 69.73-2.45 70.23-2.49 70.89-2.51L70.89-2.51 70.89 0.1Q70.31 0.2 69.62 0.24 68.94 0.29 68.23 0.29ZM77.19-31.69L77.19-28.17 74.04-28.17 74.04-31.69 77.19-31.69ZM77.19-23.75L77.19 0 74.01 0 74.01-23.75 77.19-23.75ZM85.49-19.19L85.49 0 82.34 0 82.34-23.75 85.49-23.75 85.49-21.53 86.24-21.53Q87-22.75 88.23-23.41 89.47-24.07 91.34-24.07L91.34-24.07Q94.1-24.07 95.45-22.86 96.79-21.66 96.79-18.82L96.79-18.82 96.79 0 93.66 0 93.66-19.09Q93.66-20.31 92.9-20.86 92.13-21.41 90.42-21.41L90.42-21.41Q88.71-21.41 87.41-20.83 86.12-20.24 85.49-19.19L85.49-19.19ZM108.58 0.29L108.58 0.29Q104.55 0.29 102.83-0.98 101.11-2.25 100.99-5.13L100.99-5.13Q100.89-6.93 100.85-9.38 100.82-11.82 100.85-14.28 100.89-16.75 100.99-18.58L100.99-18.58Q101.11-21.53 102.88-22.8 104.65-24.07 108.58-24.07L108.58-24.07Q112.29-24.07 113.95-22.83 115.61-21.58 115.78-18.73L115.78-18.73Q115.83-17.87 115.88-15.75 115.93-13.62 115.73-11.23L115.73-11.23 104.04-11.23Q104.04-9.69 104.06-8.11 104.09-6.52 104.16-4.81L104.16-4.81Q104.18-3.47 105.19-2.95 106.19-2.44 108.48-2.44L108.48-2.44Q110.75-2.44 111.68-2.95 112.61-3.47 112.7-4.81L112.7-4.81Q112.78-6.15 112.7-8.47L112.7-8.47 115.73-8.47Q115.85-7.76 115.84-6.82 115.83-5.88 115.78-5.13L115.78-5.13Q115.61-2.25 114.04-0.98 112.46 0.29 108.58 0.29ZM104.04-13.82L104.04-13.82 112.75-13.82Q112.8-15.48 112.8-16.99 112.8-18.51 112.7-19.07L112.7-19.07Q112.61-20.29 111.65-20.81 110.7-21.34 108.58-21.34L108.58-21.34Q106.21-21.34 105.2-20.81 104.18-20.29 104.16-19.07L104.16-19.07Q104.09-17.65 104.05-16.36 104.01-15.06 104.04-13.82ZM123.64-31.69L123.64 0 120.47 0 120.47-31.69 123.64-31.69ZM137.46 0.32L137.46 0.32Q132.82 0.32 130.79-1.14 128.76-2.59 128.67-5.93L128.67-5.93Q128.45-11.52 128.45-17.4 128.45-23.27 128.67-28.81L128.67-28.81Q128.76-32.25 130.79-33.72 132.82-35.18 137.38-35.18L137.38-35.18Q141.83-35.18 143.86-33.74 145.9-32.3 146.07-28.98L146.07-28.98Q146.22-27.42 146.21-25.81 146.2-24.19 146.07-22.63L146.07-22.63 142.68-22.63Q142.8-24.29 142.81-26.09 142.83-27.88 142.68-29.54L142.68-29.54Q142.58-30.93 141.31-31.59 140.04-32.25 137.38-32.25L137.38-32.25Q134.67-32.25 133.39-31.59 132.11-30.93 132.06-29.54L132.06-29.54Q131.86-23.51 131.88-17.44 131.89-11.38 132.06-5.37L132.06-5.37Q132.11-3.96 133.35-3.28 134.6-2.61 137.46-2.61L137.46-2.61Q140.29-2.61 141.63-3.28 142.97-3.96 143.07-5.37L143.07-5.37Q143.12-8.69 143.07-11.99L143.07-11.99 137.33-11.99 137.33-15.06 146.37-15.06Q146.49-13.35 146.51-11.08 146.54-8.81 146.39-5.93L146.39-5.93Q146.32-2.59 144.21-1.14 142.09 0.32 137.46 0.32ZM155.64 0.29L155.64 0.29Q152.91 0.29 151.53-0.93 150.15-2.15 150.15-4.96L150.15-4.96 150.15-23.75 153.27-23.75 153.27-4.69Q153.27-3.49 154.03-2.93 154.79-2.37 156.5-2.37L156.5-2.37Q158.23-2.37 159.54-2.95 160.84-3.54 161.45-4.59L161.45-4.59 161.45-23.75 164.63-23.75 164.63 0 161.45 0 161.45-2.25 160.79-2.25Q159.18 0.29 155.64 0.29ZM174.71 0.27L174.71 0.27Q171.73 0.27 170.3-0.9 168.87-2.08 168.63-4.57L168.63-4.57Q168.6-5.05 168.57-5.54 168.53-6.03 168.58-6.49L168.58-6.49Q168.75-8.67 169.95-10.14 171.14-11.62 174.49-12.84L174.49-12.84Q175.85-13.33 177.37-13.72 178.88-14.11 180.37-14.48L180.37-14.48 180.37-18.99Q180.37-20.19 179.47-20.76 178.56-21.34 176.32-21.34L176.32-21.34Q174.36-21.34 173.35-20.85 172.34-20.36 172.24-19.07L172.24-19.07Q172.19-18.46 172.19-17.32 172.19-16.19 172.24-15.41L172.24-15.41 169.19-15.41Q169.14-16.02 169.09-16.99 169.04-17.97 169.12-18.73L169.12-18.73Q169.24-21.56 170.96-22.81 172.68-24.07 176.44-24.07L176.44-24.07Q180.37-24.07 181.9-22.71 183.42-21.34 183.45-18.21L183.45-18.21 183.45 0 180.37 0 180.37-2.25 179.69-2.25Q179.08-1.03 177.94-0.38 176.81 0.27 174.71 0.27ZM175.49-2.37L175.49-2.37Q179-2.37 180.35-4.47L180.35-4.47 180.35-11.87Q179.17-11.62 177.94-11.29 176.71-10.96 175.05-10.4L175.05-10.4Q173.07-9.67 172.41-8.72 171.75-7.76 171.65-6.49L171.65-6.49Q171.68-6.13 171.69-5.7 171.7-5.27 171.75-4.81L171.75-4.81Q171.92-3.64 172.92-3 173.93-2.37 175.49-2.37ZM191.16-19.19L191.16 0 188.01 0 188.01-23.75 191.16-23.75 191.16-21.53 191.84-21.53Q192.48-22.75 193.53-23.41 194.58-24.07 196.14-24.07L196.14-24.07Q198.48-24.07 199.62-22.84 200.75-21.61 200.75-18.58L200.75-18.58Q200.75-17.92 200.7-17.02 200.66-16.11 200.56-15.41L200.56-15.41 197.53-15.41Q197.58-15.65 197.59-16.26 197.6-16.87 197.62-17.48 197.63-18.09 197.63-18.31L197.63-18.31Q197.63-20.12 197.02-20.76 196.41-21.41 195.07-21.41L195.07-21.41Q192.21-21.41 191.16-19.19L191.16-19.19ZM209.74 0.29L209.74 0.29Q206.98 0.29 205.63-0.93 204.29-2.15 204.22-4.96L204.22-4.96Q204.12-6.96 204.08-9.35 204.05-11.74 204.08-14.21 204.12-16.67 204.22-18.82L204.22-18.82Q204.29-21.66 205.67-22.86 207.05-24.07 209.78-24.07L209.78-24.07Q211.81-24.07 212.97-23.45 214.13-22.83 214.98-21.53L214.98-21.53 215.62-21.53 215.62-31.69 218.74-31.69 218.74 0 215.62 0 215.62-2.25 214.91-2.25Q214.08-1.03 212.92-0.37 211.76 0.29 209.74 0.29ZM210.64-2.37L210.64-2.37Q214.33-2.37 215.62-4.59L215.62-4.59 215.62-19.19Q214.35-21.41 210.66-21.41L210.66-21.41Q208.95-21.41 208.19-20.86 207.42-20.31 207.39-19.09L207.39-19.09Q207.25-15.43 207.27-11.66 207.29-7.89 207.39-4.69L207.39-4.69Q207.44-3.49 208.19-2.93 208.93-2.37 210.64-2.37Z" opacity="1" transform="matrix(1,0,0,1,0,0)" fill="#d7dbde" class="wordmark-text-0" data-fill-palette-color="primary" id="text-0"></path></svg></g></svg></g><g transform="matrix(1,0,0,1,0,79.95303136750019)"><svg viewBox="0 0 395.52 39.97405773198016" height="39.97405773198016" width="395.52"><g transform="matrix(1,0,0,1,0,0)"><svg width="395.52" viewBox="4 -35 451.68 45.65" height="39.97405773198016" data-palette-color="#d7dbde"><path d="M4-33.5L11.1-34.75 10.55-18.45 23.3-34.65 28.4-31.25 16.9-17.9 29.1-3.45 22.7 0.55 10.5-16.7 10.4-13 11 0 4 0 4.6-12.15 4-33.5ZM62.66-5.1L62.66-5.1Q64.11-5.1 65.71-5.85 67.31-6.6 68.21-7.35L68.21-7.35 69.11-8.1 71.41-5.3Q70.91-4.45 69.86-3.35 68.81-2.25 67.73-1.48 66.66-0.7 64.88-0.08 63.11 0.55 61.21 0.55L61.21 0.55Q57.16 0.55 54.61-2.53 52.06-5.6 52.06-10.45L52.06-10.45Q52.06-16.55 55.61-21.15 59.16-25.75 63.91-25.75L63.91-25.75Q67.56-25.75 69.58-23.7 71.61-21.65 71.61-17.95L71.61-17.95Q71.61-15.75 70.86-12.95L70.86-12.95 69.86-11.9 57.36-10.75Q58.21-5.1 62.66-5.1ZM62.66-20.6L62.66-20.6Q60.46-20.6 58.96-18.82 57.46-17.05 57.21-14.3L57.21-14.3 65.71-15.35Q65.86-16.5 65.86-17.25L65.86-17.25Q65.86-20.6 62.66-20.6ZM106.82-5.1L106.82-5.1Q108.27-5.1 109.87-5.85 111.47-6.6 112.37-7.35L112.37-7.35 113.27-8.1 115.57-5.3Q115.07-4.45 114.02-3.35 112.97-2.25 111.89-1.48 110.82-0.7 109.04-0.08 107.27 0.55 105.37 0.55L105.37 0.55Q101.32 0.55 98.77-2.53 96.22-5.6 96.22-10.45L96.22-10.45Q96.22-16.55 99.77-21.15 103.32-25.75 108.07-25.75L108.07-25.75Q111.72-25.75 113.74-23.7 115.77-21.65 115.77-17.95L115.77-17.95Q115.77-15.75 115.02-12.95L115.02-12.95 114.02-11.9 101.52-10.75Q102.37-5.1 106.82-5.1ZM106.82-20.6L106.82-20.6Q104.62-20.6 103.12-18.82 101.62-17.05 101.37-14.3L101.37-14.3 109.87-15.35Q110.02-16.5 110.02-17.25L110.02-17.25Q110.02-20.6 106.82-20.6ZM155.32-25.25L155.32-25.25Q158.52-25.25 160.7-22.45 162.87-19.65 162.87-14.9L162.87-14.9Q162.87-8.25 159.45-4.13 156.02 0 150.92 0L150.92 0Q149.87 0 148.57-0.15L148.57-0.15 148.82 9.4 141.97 10.65 142.62-12.15 142.67-12.15Q142.47-18.85 141.57-24.15L141.57-24.15 147.62-25.45Q147.92-22.8 148.12-20.2L148.12-20.2Q148.22-20.45 149.15-21.58 150.07-22.7 151.87-23.98 153.67-25.25 155.32-25.25ZM153.37-18.75L153.37-18.75Q150.72-18.75 148.22-17.3L148.22-17.3 148.22-13 148.42-5.85Q151.12-5.4 152.52-5.4L152.52-5.4Q157.32-5.4 157.32-12.08 157.32-18.75 153.37-18.75ZM216.19-4.55L220.09-9.95Q224.34-5.7 228.59-5.7L228.59-5.7Q230.79-5.7 232.12-6.73 233.44-7.75 233.44-9.38 233.44-11 231.84-12.13 230.24-13.25 227.97-14.1 225.69-14.95 223.44-16.03 221.19-17.1 219.59-19.1 217.99-21.1 217.99-23.95L217.99-23.95Q217.99-28.45 221.74-31.73 225.49-35 230.64-35L230.64-35Q232.99-35 235.19-34.5 237.39-34 239.44-33.05L239.44-33.05 236.04-25.75Q234.64-26.85 232.22-27.78 229.79-28.7 227.97-28.7 226.14-28.7 225.02-27.83 223.89-26.95 223.89-25.5 223.89-24.05 225.49-22.93 227.09-21.8 229.37-20.95 231.64-20.1 233.92-19.07 236.19-18.05 237.79-16.05 239.39-14.05 239.39-11.2L239.39-11.2Q239.39-6.5 235.64-2.98 231.89 0.55 226.89 0.55L226.89 0.55Q223.14 0.55 220.24-1.25L220.24-1.25Q217.69-2.8 216.64-4L216.64-4 216.19-4.55ZM274.45-5.1L274.45-5.1Q275.9-5.1 277.5-5.85 279.1-6.6 280-7.35L280-7.35 280.9-8.1 283.2-5.3Q282.7-4.45 281.65-3.35 280.6-2.25 279.52-1.48 278.45-0.7 276.67-0.08 274.9 0.55 273 0.55L273 0.55Q268.95 0.55 266.4-2.53 263.85-5.6 263.85-10.45L263.85-10.45Q263.85-16.55 267.4-21.15 270.95-25.75 275.7-25.75L275.7-25.75Q279.35-25.75 281.37-23.7 283.4-21.65 283.4-17.95L283.4-17.95Q283.4-15.75 282.65-12.95L282.65-12.95 281.65-11.9 269.15-10.75Q270-5.1 274.45-5.1ZM274.45-20.6L274.45-20.6Q272.25-20.6 270.75-18.82 269.25-17.05 269-14.3L269-14.3 277.5-15.35Q277.65-16.5 277.65-17.25L277.65-17.25Q277.65-20.6 274.45-20.6ZM318.21-19.25Q316.01-19.25 314.81-17.68 313.61-16.1 313.61-12.85 313.61-9.6 314.83-7.63 316.06-5.65 318.41-5.65L318.41-5.65Q319.61-5.65 320.76-6.4 321.91-7.15 322.51-7.9L322.51-7.9 323.06-8.7 325.56-6.1Q325.41-5.85 325.18-5.4 324.96-4.95 324.08-3.8 323.21-2.65 322.23-1.78 321.26-0.9 319.71-0.18 318.16 0.55 316.46 0.55L316.46 0.55Q312.71 0.55 310.36-2.5 308.01-5.55 308.01-10.45L308.01-10.45Q308.01-16.55 311.56-21.15 315.11-25.75 319.86-25.75L319.86-25.75Q321.31-25.75 322.76-25.33 324.21-24.9 325.71-24L325.71-24 322.21-17.85Q320.41-19.25 318.21-19.25ZM356.71 0L356.71 0Q354.01 0 352.34-1.78 350.66-3.55 350.66-6.45L350.66-6.45 350.96-12.2 350.41-24.2 357.11-25.45 356.46-10.25Q356.46-8.1 357.24-7.1 358.01-6.1 359.71-6.1 361.41-6.1 364.41-7.8L364.41-7.8 364.41-10.8 363.86-23.95 370.61-25.2 370.01-12.7 370.06-8.6Q370.06-5.4 371.71-2.15L371.71-2.15 366.51 0.15Q364.86-3.1 364.51-5.05L364.51-5.05Q360.01 0 356.71 0ZM397.52-24.15L397.52-24.15 403.57-25.45Q404.02-21.6 404.17-18.15L404.17-18.15Q408.72-25.2 412.72-25.2L412.72-25.2 412.17-17.4Q409.27-17.4 407.6-16.88 405.92-16.35 404.17-14.8L404.17-14.8 404.17-13 404.72-1.25 398.02 0 398.62-12.15Q398.42-18.85 397.52-24.15ZM446.73-5.1L446.73-5.1Q448.18-5.1 449.78-5.85 451.38-6.6 452.28-7.35L452.28-7.35 453.18-8.1 455.48-5.3Q454.98-4.45 453.93-3.35 452.88-2.25 451.81-1.48 450.73-0.7 448.96-0.08 447.18 0.55 445.28 0.55L445.28 0.55Q441.23 0.55 438.68-2.53 436.13-5.6 436.13-10.45L436.13-10.45Q436.13-16.55 439.68-21.15 443.23-25.75 447.98-25.75L447.98-25.75Q451.63-25.75 453.66-23.7 455.68-21.65 455.68-17.95L455.68-17.95Q455.68-15.75 454.93-12.95L454.93-12.95 453.93-11.9 441.43-10.75Q442.28-5.1 446.73-5.1ZM446.73-20.6L446.73-20.6Q444.53-20.6 443.03-18.82 441.53-17.05 441.28-14.3L441.28-14.3 449.78-15.35Q449.93-16.5 449.93-17.25L449.93-17.25Q449.93-20.6 446.73-20.6Z" opacity="1" transform="matrix(1,0,0,1,0,0)" fill="#d7dbde" class="slogan-text-1" data-fill-palette-color="secondary" id="text-1"></path></svg></g></svg></g></svg></g></svg></g><g transform="matrix(1,0,0,1,130.11071735584227,0)"><svg viewBox="0 0 137.27616528831538 165.73923713548186" height="165.73923713548186" width="137.27616528831538"><g><svg xmlns="http://www.w3.org/2000/svg" data-name="Layer 1" viewBox="76.662 10.823826656451876 358.67599999999993 490.1761733435481" x="7.999999999999993" y="0" height="165.73923713548186" width="121.2761652883154" class="icon-icon-0" data-fill-palette-color="accent" id="icon-0"><path d="M385.542 485H353.151L334.107 175H335.885A7.856 7.856 0 0 0 344 167.292V71.152A8 8 0 0 0 343.884 70.223C343.874 70.139 343.83 70.058 343.818 69.975 343.784 69.747 343.727 69.521 343.675 69.3 343.655 69.215 343.625 69.131 343.603 69.047A8 8 0 0 0 343.383 68.376 5 5 0 0 0 343.308 68.176 8 8 0 0 0 342.446 66.582C342.398 66.512 342.346 66.446 342.293 66.382Q342.101 66.122 341.887 65.882C341.821 65.806 341.753 65.731 341.687 65.658A8 8 0 0 0 341.199 65.188C341.143 65.138 341.09 65.088 341.031 65.036A8 8 0 0 0 340.301 64.489C340.29 64.482 340.281 64.474 340.272 64.467L260.384 12.132A8 8 0 0 0 251.616 12.132L171.731 64.46C171.722 64.467 171.713 64.475 171.702 64.482A8 8 0 0 0 170.972 65.029C170.913 65.078 170.86 65.129 170.804 65.181A8 8 0 0 0 170.316 65.651 5 5 0 0 0 170.116 65.875Q169.903 66.118 169.71 66.375C169.659 66.443 169.61 66.509 169.558 66.575A8 8 0 0 0 168.696 68.169C168.67 68.235 168.648 68.302 168.623 68.369A8 8 0 0 0 168.407 69.04C168.385 69.124 168.362 69.208 168.343 69.293A8 8 0 0 0 168.214 69.968C168.202 70.051 168.129 70.132 168.119 70.216A8 8 0 0 0 168.003 71.145V167.285A7.856 7.856 0 0 0 176.115 175H177.893L158.849 485H126.458A8 8 0 1 0 126.458 501H385.542A8 8 0 0 0 385.542 485M185.991 304.362L245.8 379.95 175.919 468.269ZM256 392.667L329.057 485H182.943ZM336.082 468.267L266.2 379.95 326.008 304.362ZM328 79V112H184V79ZM328 159H324V128H328ZM188 128V159H184V128ZM204 128H218V159H204ZM234 128H248V159H234ZM264 128H278V159H264ZM294 128H308V159H294ZM256 28.236L309.072 63H202.928ZM318.077 175L324.538 280.289 256 366.985 187.462 280.253 193.923 175Z" fill="#6cc24a" data-fill-palette-color="accent"></path><path d="M427.338 99H379.5A8 8 0 0 0 379.5 115H427.338A8 8 0 0 0 427.338 99" fill="#6cc24a" data-fill-palette-color="accent"></path><path d="M367.133 65.785A8 8 0 0 0 370.296 65.129L418.133 44.51A8 8 0 0 0 411.8 29.816L363.963 50.436A8 8 0 0 0 367.134 65.785Z" fill="#6cc24a" data-fill-palette-color="accent"></path><path d="M418.133 170.03L370.3 149.41A8 8 0 1 0 363.966 164.104L411.8 184.723A8 8 0 0 0 418.134 170.03Z" fill="#6cc24a" data-fill-palette-color="accent"></path><path d="M140.5 107A8 8 0 0 0 132.5 99H84.662A8 8 0 0 0 84.662 115H132.5A8 8 0 0 0 140.5 107" fill="#6cc24a" data-fill-palette-color="accent"></path><path d="M93.867 44.51L141.7 65.129A8 8 0 1 0 148.034 50.436L100.2 29.816A8 8 0 0 0 93.867 44.51" fill="#6cc24a" data-fill-palette-color="accent"></path><path d="M152.218 153.59A8 8 0 0 0 141.704 149.41L93.867 170.03A8 8 0 1 0 100.201 184.723L148.038 164.1A8 8 0 0 0 152.218 153.59" fill="#6cc24a" data-fill-palette-color="accent"></path></svg></g></svg></g><g><rect width="25.644629990690404" height="5.833174400481473" y="158.90606273500038" x="267.38688264415765" fill="#d7dbde" data-fill-palette-color="secondary"></rect><rect width="25.644629990690404" height="5.833174400481473" y="158.90606273500038" x="104.46608736515186" fill="#d7dbde" data-fill-palette-color="secondary"></rect></g></svg></g><defs></defs></svg><rect width="305.12204736196793" height="247.2" fill="none" stroke="none" visibility="hidden"></rect></g></svg></g></svg>